<?xml version="1.0" encoding="utf-8"?>
<!-- Generator: Adobe Illustrator 18.1.1, SVG Export Plug-In . SVG Version: 6.00 Build 0)  -->
<svg version="1.1" id="Layer_1" xmlns="http://www.w3.org/2000/svg" xmlns:xlink="http://www.w3.org/1999/xlink" x="0px" y="0px"
	 viewBox="0 0 350 150" enable-background="new 0 0 350 150" xml:space="preserve">
<g>
	<path fill="#FFFFFF" d="M188.9,43.5l-10.5-7c-1.3-0.9-1.7-2.6-0.9-3.9c0.9-1.3,2.6-1.7,3.9-0.9l10.5,7c1.3,0.9,1.7,2.6,0.9,3.9
		C192,44.3,190.2,44.3,188.9,43.5z"/>
	<path fill="#FFFFFF" d="M213.8,22.1L209,10.3c-0.9-1.7,0-3.5,1.3-3.9c1.7-0.9,3.1,0,3.9,1.7l4.8,11.8c0.4,1.7,0,3.5-1.3,3.9
		C216,24.7,214.2,23.8,213.8,22.1z"/>
	<path fill="#FFFFFF" d="M251.4,22.1l4.8-11.8c0.4-1.7,0-3.5-1.7-3.9c-1.7-0.4-3.1,0-3.9,1.7l-4.8,11.8c-0.4,1.7,0,3.5,1.7,3.9
		C249.2,24.2,250.5,23.4,251.4,22.1z"/>
	<path fill="#FFFFFF" d="M273.2,42.1l10.5-7.4c1.3-0.9,1.7-2.6,0.9-3.9c-0.9-1.3-2.6-1.7-4.4-0.4l-10.5,7.4
		c-1.3,0.9-1.7,2.6-0.9,3.9C270.1,43,271.9,43.5,273.2,42.1z"/>
	<g>
		<path fill="#FFFFFF" d="M218.2,124.2c0,0,0.4-9.6-20.5-35.4c-16.2-28.4,7.4-48.5,7.4-48c-0.4,0.4,10-10.9,27.5-10.9
			c17,0,25.3,9.2,25.3,9.2s27.1,21,8.3,51.5c-20.1,24.5-19.2,33.6-19.2,33.6H218.2z"/>
		<path fill="#FFFFFF" d="M239.1,138.6H226c-1.7,0-3.1,1.3-3.1,3.1s1.3,3.1,3.1,3.1h13.1c1.7,0,3.1-1.3,3.1-3.1
			C242.6,140,241.3,138.6,239.1,138.6z"/>
		<path fill="#FFFFFF" d="M244.4,129L244.4,129h-23.6c-1.7,0-3.1,1.3-3.1,3.1s1.3,3.1,3.1,3.1l0,0h23.6c1.7,0,3.1-1.3,3.1-3.1
			C247.9,130.3,246.1,129,244.4,129z"/>
	</g>
	<g>
		<g>
			<g>
				<path fill="#FFFFFF" d="M68,60v9.2H55.7v40.6H44.4V69.2H32.2V60H68z"/>
				<path fill="#FFFFFF" d="M119.1,90.6V60h11.4v30.6c0,6.5-1.7,11.4-5.7,14.8c-3.5,3.5-8.7,5.2-14.8,5.2c-6.1,0-11.4-1.7-14.8-5.2
					c-3.5-3.5-5.7-8.3-5.7-14.4V60h11.4v31c0,6.1,3.1,9.2,8.7,9.2S119.1,97.2,119.1,90.6z"/>
				<path fill="#FFFFFF" d="M188,60v9.2h-12.2v40.6h-11.4V69.2h-12.2V60H188z"/>
				<path fill="#FFFFFF" d="M288.5,92.8v17.5h-11.4V60h17.5c5.7,0,10,1.3,13.5,4.4c3.5,3.1,5.2,7,5.2,11.8c0,7-3.1,12.2-9.2,14.8
					l12.7,19.2h-13.5l-10.9-17.5C292.4,92.8,288.5,92.8,288.5,92.8z M288.5,69.2v14h5.2c4.8,0,7.4-2.6,7.4-7.4
					c0-2.2-0.4-3.9-1.7-4.8c-1.3-1.3-3.1-1.7-5.2-1.7H288.5z"/>
			</g>
		</g>
		<g>
			<g>
				<path fill="#04B097" d="M238.3,110.3h-11.4V91.9l-17-31.9h13.5c4.8,11.8,8.3,19.6,9.2,23.1c0.4-2.2,2.6-7.4,6.5-16.2l3.1-7.4
					h13.1L237.8,91v19.2H238.3z"/>
			</g>
		</g>
	</g>
</g>
<g>
</g>
<g>
</g>
<g>
</g>
<g>
</g>
<g>
</g>
<g>
</g>
</svg>
