<?xml version="1.0" encoding="utf-8"?>
<!-- Generator: Adobe Illustrator 18.1.1, SVG Export Plug-In . SVG Version: 6.00 Build 0)  -->
<svg version="1.1" id="Layer_1" xmlns="http://www.w3.org/2000/svg" xmlns:xlink="http://www.w3.org/1999/xlink" x="0px" y="0px"
	 viewBox="0 0 350 150" enable-background="new 0 0 350 150" xml:space="preserve">
<path fill="#00B198" d="M187,38.6l-9.4-6.5c-1.3-0.9-1.6-2.5-0.8-3.7c0.9-1.3,2.5-1.5,3.8-0.6l9.4,6.5c1.3,0.9,1.7,2.5,0.8,3.7
	C189.9,39.2,188.2,39.4,187,38.6"/>
<path fill="#00B198" d="M218.1,14.9l-4.3-10.6c-0.6-1.4,0-3,1.4-3.6c1.4-0.6,2.9,0.2,3.5,1.6l4.3,10.6c0.6,1.4,0,3-1.4,3.5
	C220.2,17,218.7,16.3,218.1,14.9"/>
<path fill="#00B198" d="M261.1,15l4.5-10.8c0.6-1.4,0-3-1.4-3.6c-1.5-0.6-3,0.1-3.6,1.6l-4.5,10.8c-0.6,1.4,0,3,1.4,3.6
	C259,17.2,260.6,16.4,261.1,15"/>
<path fill="#00B198" d="M287.9,38.7l9.6-6.5c1.3-0.9,1.7-2.5,0.8-3.8c-0.9-1.3-2.5-1.5-3.8-0.6l-9.6,6.5c-1.3,0.9-1.7,2.5-0.8,3.8
	C285,39.3,286.6,39.6,287.9,38.7"/>
<g>
	<g>
		<path fill="#00B198" d="M221,127.1c0,0,0.3-10.7-23.7-38.7c-18.7-31,8.9-53.1,8.5-52.8c-0.4,0.4,11.9-11.8,31.9-11.9
			c20-0.1,29.6,9.8,29.6,9.8s31.5,23.2,9.9,56.5c-23.3,26.8-22.2,37-22.2,37L221,127.1z"/>
		<path fill="#00B198" d="M245.3,143.1l-15.2,0.1c-2,0-3.7,1.4-3.6,3.3c0,1.9,1.7,3.3,3.7,3.3l15.2,0c2,0,3.7-1.4,3.6-3.3
			C248.9,144.5,247.3,143.1,245.3,143.1"/>
		<path fill="#00B198" d="M251.2,132.7L251.2,132.7l-27,0.1c-2,0-3.7,1.6-3.7,3.5c0,1.9,1.7,3.4,3.7,3.4l27-0.1c2,0,3.6-1.6,3.6-3.5
			C254.8,134.2,253.2,132.6,251.2,132.7"/>
	</g>
</g>
<g>
	<path fill="#353535" d="M245.1,127h-15.7v-25.2l-23.5-43.5h18.4c6.9,16.5,11.1,27.1,12.8,32c0.7-3.1,3.7-10.4,9-22l4.5-10h18.3
		l-23.8,43.4V127z"/>
</g>
<g>
	<g>
		<path fill="#FFFFFF" d="M50.5,58.2v12.6H33.7V127H17.9V70.9H1.1V58.2H50.5z"/>
		<path fill="#FFFFFF" d="M102.7,100.4V58.2h15.7v42.1c0,9-2.5,15.8-7.5,20.5c-5,4.7-11.8,7.1-20.3,7.1c-8.5,0-15.3-2.3-20.4-7
			c-5.1-4.7-7.7-11.3-7.7-19.9V58.2h15.7V101c0,8.5,4.1,12.7,12.2,12.7C98.6,113.7,102.7,109.3,102.7,100.4z"/>
		<path fill="#FFFFFF" d="M179.8,58.2v12.6h-16.7V127h-15.8V70.9h-16.8V58.2H179.8z"/>
	</g>
</g>
<g>
	<g>
		<path fill="#FFFFFF" d="M310.9,103.1V127h-15.7V58.2H319c7.7,0,13.8,2,18.5,6.1c4.7,4.1,7,9.4,7,15.9c0,9.8-4.2,16.6-12.5,20.3
			l17.4,26.4h-18.8l-14.9-23.9H310.9z M310.9,71v19.4h7.4c6.8,0,10.2-3.3,10.2-10c0-2.9-0.9-5.2-2.7-6.9c-1.8-1.7-4.2-2.5-7.2-2.5
			H310.9z"/>
	</g>
</g>
<g>
</g>
<g>
</g>
<g>
</g>
<g>
</g>
<g>
</g>
<g>
</g>
</svg>
