<?xml version="1.0" encoding="utf-8"?>
<!-- Generator: Adobe Illustrator 18.1.1, SVG Export Plug-In . SVG Version: 6.00 Build 0)  -->
<svg version="1.1" id="Layer_1" xmlns="http://www.w3.org/2000/svg" xmlns:xlink="http://www.w3.org/1999/xlink" x="0px" y="0px"
	 viewBox="0 0 100 100" enable-background="new 0 0 100 100" xml:space="preserve">
<g>
	<ellipse fill="#04B097" cx="50.1" cy="50.1" rx="49.9" ry="49.9"/>
	<path fill="#FFFFFF" d="M72,41.4l6.1-1.7c0.9-0.2,1.3-1.1,1.1-1.7c-0.2-0.9-1.1-1.1-2-0.9l-6.1,1.7c-0.9,0.2-1.3,1.1-1.1,1.7
		C70.5,41.2,71.4,41.6,72,41.4z"/>
	<path fill="#FFFFFF" d="M20.9,56.8l6.1-1.7c0.9-0.2,1.3-1.1,1.1-1.7c-0.2-0.9-1.1-1.1-2-0.9L20,54.2c-0.9,0.2-1.3,1.1-1.1,1.7
		C19.3,56.8,20,57.1,20.9,56.8z"/>
	<path fill="#FFFFFF" d="M24.8,41l-6.1-2c-0.9-0.2-1.3-1.1-1.1-1.7c0.2-0.9,1.1-1.1,2-0.9l6.1,2c0.9,0.2,1.3,1.1,1.1,1.7
		C26.3,40.8,25.4,41.2,24.8,41z"/>
	<path fill="#FFFFFF" d="M33.7,27.3l-3.9-4.8c-0.4-0.7-0.4-1.5,0.2-2.2c0.7-0.4,1.5-0.4,2.2,0.2l3.9,4.8c0.4,0.7,0.4,1.5-0.2,2.2
		C35.2,28.2,34.3,28,33.7,27.3z"/>
	<path fill="#FFFFFF" d="M51.6,22.1l0.7-6.3c0-0.9-0.4-1.5-1.3-1.7c-0.9,0-1.5,0.4-1.5,1.3l-0.7,6.3c0,0.9,0.4,1.5,1.3,1.7
		C50.8,23.6,51.4,23,51.6,22.1z"/>
	<path fill="#FFFFFF" d="M64.9,28.8l3.9-4.8c0.4-0.7,0.4-1.5-0.2-2.2c-0.7-0.4-1.5-0.4-2.2,0.2l-3.9,4.8c-0.4,0.7-0.4,1.5,0.2,2.2
		C63.6,29.7,64.4,29.5,64.9,28.8z"/>
	<g>
		<path fill="#FFFFFF" d="M50.6,75.1c0,0-1.3-4.8-14.7-13.9c-11.7-11.1-3.5-24.1-3.5-23.9c-0.2,0.2,3.3-6.7,11.5-9.1
			c8.2-2.6,13.4,0.7,13.4,0.7s15.8,6.1,11.5,23.2c-6.1,14.5-4.1,18.9-4.1,18.9L50.6,75.1z"/>
		<path fill="#FFFFFF" d="M62.7,79l-6.3,2c-0.9,0.2-1.3,1.1-1.1,2c0.2,0.9,1.1,1.3,2,1.1l6.3-2c0.9-0.2,1.3-1.1,1.1-2
			C64.4,79,63.6,78.5,62.7,79z"/>
		<path fill="#FFFFFF" d="M63.8,73.6L63.8,73.6L52.5,77c-0.9,0.2-1.3,1.1-1.1,2c0.2,0.9,1.1,1.3,2,1.1l0,0l11.3-3.5
			c0.9-0.2,1.3-1.1,1.1-2C65.5,73.8,64.7,73.3,63.8,73.6z"/>
	</g>
	<g>
		<g enable-background="new    ">
			<path fill="#04B097" d="M53.7,66.6l-3.3-10.7L36.2,44.4l4.1-1.2l7.3,6.1c1.4,1.1,2.6,2.3,3.9,3.5c0.4-1.6,0.8-3.3,1.4-5.3
				l2.6-8.9l3.9-1.2l-5.6,17.6L57,65.6L53.7,66.6z"/>
		</g>
	</g>
</g>
<g>
</g>
<g>
</g>
<g>
</g>
<g>
</g>
<g>
</g>
<g>
</g>
</svg>
